<?xml version="1.0"?>
<svg xmlns="http://www.w3.org/2000/svg" xmlns:xlink="http://www.w3.org/1999/xlink" version="1.1" id="Capa_1" x="0px" y="0px" width="1.4em" height="1.4em" viewBox="0 0 97.283 97.283" style="enable-background:new 0 0 97.283 97.283;" xml:space="preserve" class=""><g><g>
	<path d="M62.805,83.951l33.894-33.896c0.78-0.781,0.78-2.047,0-2.828L62.805,13.332c-0.781-0.781-2.047-0.781-2.828,0l-9.031,9.03   c-0.375,0.375-0.586,0.883-0.586,1.414c0,0.53,0.211,1.039,0.586,1.414l14.531,14.534H2c-1.104,0-2,0.896-2,2v13.835   c0,1.104,0.896,2,2,2h63.479L50.945,72.091c-0.75,0.75-0.75,2.078,0,2.828l9.031,9.031c0.375,0.375,0.883,0.586,1.414,0.586   C61.92,84.537,62.43,84.326,62.805,83.951z" data-original="#000000" class="active-path" data-old_color="#000000" fill="#FFFFFF"/>
</g></g> </svg>
